<?xml version="1.0" encoding="UTF-8"?><svg xmlns="http://www.w3.org/2000/svg" xmlns:xlink="http://www.w3.org/1999/xlink" height="514.5" preserveAspectRatio="xMidYMid meet" version="1.0" viewBox="-0.6 -0.1 508.7 514.5" width="508.7" zoomAndPan="magnify"><defs><clipPath id="a"><path d="M 407 149 L 508.050781 149 L 508.050781 411 L 407 411 Z M 407 149"/></clipPath><clipPath id="b"><path d="M 317 484 L 361 484 L 361 513.921875 L 317 513.921875 Z M 317 484"/></clipPath></defs><g><g clip-path="url(#a)" id="change1_2"><path d="M 472.859375 213.535156 C 476.164062 219.75 479.320312 226.132812 480.980469 232.976562 C 483.199219 242.101562 482.671875 251.636719 482.449219 261.027344 C 481.746094 291.136719 484.972656 323.039062 502.660156 347.414062 C 499.15625 346.117188 495.65625 344.820312 492.152344 343.523438 C 497.183594 355.148438 502.484375 366.65625 508.054688 378.03125 C 502.101562 374.011719 496.148438 369.988281 490.199219 365.964844 C 491.003906 381.34375 495.171875 396.535156 502.320312 410.171875 C 481.0625 395.21875 466.585938 372.695312 452.648438 350.753906 C 452.699219 360.394531 452.75 370.03125 452.800781 379.671875 C 449.121094 365.765625 446.894531 351.472656 446.171875 337.101562 C 443.332031 340.816406 440.496094 344.53125 437.65625 348.242188 C 445.402344 338.105469 444.394531 310.433594 444.9375 298.082031 C 445.699219 280.855469 444.722656 263.558594 442.078125 246.519531 C 439.4375 229.476562 435.121094 212.695312 429.183594 196.507812 C 423.269531 180.371094 412.882812 165.714844 407.164062 149.964844 C 434.960938 147.910156 462.046875 193.207031 472.859375 213.535156" fill="#ab451f"/></g><g id="change2_1"><path d="M 4.34375 40.539062 C 1.832031 33.328125 -0.644531 25.207031 2.632812 18.3125 C 3.351562 16.796875 4.332031 15.402344 4.84375 13.808594 C 5.859375 10.640625 4.945312 6.964844 6.539062 4.050781 C 10.355469 8 13.800781 12.3125 16.804688 16.90625 C 18.941406 20.171875 20.878906 23.644531 21.746094 27.445312 C 22.484375 30.675781 22.421875 34.027344 22.359375 37.339844 C 22.320312 39.328125 22.28125 41.339844 21.746094 43.253906 C 21.003906 45.945312 19.273438 48.351562 16.964844 49.914062" fill="#fbcda3"/></g><g id="change3_1"><path d="M 283.5625 307.914062 L 283.789062 308.503906 C 297.21875 343.246094 299.574219 382.738281 290.414062 419.445312 L 277.378906 471.675781 C 277.378906 471.675781 287.421875 482.457031 296.75 477.414062 C 306.074219 472.375 330.46875 380.628906 330.46875 380.628906 C 330.46875 380.628906 338.597656 364.179688 325.207031 349.46875 C 311.8125 334.753906 347.742188 306.695312 347.742188 306.695312 L 335.488281 280.222656 L 302.488281 285.414062 L 283.5625 307.914062" fill="#ecac7d"/></g><g id="change2_2"><path d="M 415.226562 291.789062 C 409.839844 300.839844 401.5 310.707031 405.453125 320.46875 C 406.8125 323.832031 409.5 326.476562 411.234375 329.664062 C 416.167969 338.734375 412.589844 349.886719 408.941406 359.542969 C 395.515625 395.058594 374.328125 452.367188 360.902344 487.882812 C 350.902344 489.113281 339.027344 486.976562 329.183594 484.8125 C 341.179688 458.113281 357.265625 409.007812 359.507812 379.820312 C 360.929688 361.300781 359.082031 325.449219 347.742188 310.734375 C 338.367188 298.570312 318.976562 315.585938 303.769531 313.429688 C 288.5625 311.269531 269.664062 299.96875 254.410156 301.761719 C 240.753906 303.363281 234.339844 310.640625 220.679688 312.246094 C 222.339844 351.980469 198.769531 388.0625 190.34375 426.929688 C 186.777344 443.367188 185.273438 462.46875 178.40625 477.820312 C 169.117188 481.308594 157.675781 480.363281 148.308594 477.085938 C 151.074219 464.070312 153.835938 451.050781 156.597656 438.03125 C 158.144531 430.75 159.691406 423.457031 160.675781 416.078125 C 161.953125 406.46875 162.273438 396.761719 162.585938 387.070312 C 163.554688 357.335938 155.324219 337.183594 156.292969 307.445312 C 154.390625 325.378906 139.140625 331.863281 133.171875 348.882812 C 129.757812 358.609375 128.898438 369.011719 127.574219 379.238281 C 123.65625 409.527344 122.933594 449.941406 100.035156 470.152344 C 95.03125 474.566406 100.035156 470.152344 93.558594 468.542969 C 87.082031 466.933594 84.101562 463.917969 78.042969 461.117188 C 89.796875 428.019531 101.726562 393.535156 98.015625 358.605469 C 95.195312 332.089844 91.023438 304.992188 89.605469 278.457031 C 88.113281 250.648438 95.253906 222.921875 91.472656 195.148438 C 90.53125 188.242188 88.914062 181.414062 88.539062 174.453125 C 87.929688 163.160156 91.890625 150.765625 89.222656 139.769531 C 75.320312 146.714844 69.9375 169.574219 65.351562 182.917969 C 60.597656 196.757812 35.179688 230.253906 18.765625 211.730469 C 2.222656 193.066406 3.59375 172.398438 3.074219 149.046875 C 2.496094 123.074219 1.917969 97.097656 1.335938 71.125 C 1.214844 65.582031 1.105469 59.933594 2.65625 54.613281 C 5.136719 46.128906 12.019531 39.0625 20.441406 36.367188 C 33.042969 22.257812 68.648438 20.539062 86.769531 25.972656 C 95.261719 28.519531 107.613281 33.707031 114.859375 38.816406 C 129.527344 49.152344 123.90625 42.933594 137.035156 55.164062 C 162.710938 79.078125 185.4375 105.925781 213.59375 126.699219 C 246.367188 150.878906 290.992188 141.070312 330.082031 139.183594 C 364.484375 137.527344 407.628906 133.902344 424.566406 170.96875 C 441.335938 207.675781 435.457031 257.796875 415.226562 291.789062" fill="#fbcda3"/></g><g id="change4_1"><path d="M 151.132812 464.496094 L 139.539062 500.988281 C 139.539062 500.988281 161.078125 514.449219 174.539062 505.476562 L 178.40625 477.820312 L 151.132812 464.496094" fill="#1a1715"/></g><g id="change4_2"><path d="M 78.042969 461.117188 L 60.566406 492.824219 C 72.695312 497.5 86.128906 497.5 98.257812 492.824219 L 108.015625 461.117188 C 108.015625 461.117188 95.519531 467.019531 78.042969 461.117188" fill="#1a1715"/></g><g clip-path="url(#b)" id="change4_4"><path d="M 329.183594 484.8125 L 317.828125 508.558594 C 317.828125 508.558594 334.578125 520.617188 353.722656 508.558594 L 360.902344 487.882812 C 360.902344 487.882812 342.933594 483.894531 329.183594 484.8125" fill="#1a1715"/></g><g id="change4_3"><path d="M 277.378906 471.675781 L 268.769531 495.742188 C 268.769531 495.742188 280.472656 503.738281 296.75 495.742188 L 302.804688 467.789062 C 302.804688 467.789062 287.421875 476.171875 277.378906 471.675781" fill="#1a1715"/></g><g id="change1_1"><path d="M 76.25 25.972656 C 34.867188 22.996094 27.882812 52.277344 27.882812 52.277344 C 27.882812 52.277344 16.796875 47.789062 18.6875 39.714844 C 19.460938 36.414062 19.566406 32.371094 19.417969 28.738281 C 19.117188 21.195312 23.359375 14.035156 30.34375 11.164062 C 32.925781 10.097656 35.125 9.949219 35.914062 11.894531 C 38.277344 17.726562 48.195312 5.613281 54.335938 5.613281 C 60.476562 5.613281 60.003906 13.6875 60.003906 13.6875 C 60.003906 13.6875 75.121094 5.164062 85.039062 8.304688 C 89.285156 6.527344 93.832031 5.804688 98.21875 6.308594 C 102.335938 6.78125 105.539062 9.773438 107.210938 13.566406 C 107.8125 14.9375 108.941406 16.167969 110.300781 16.914062 C 113.011719 18.40625 116.308594 18.476562 119.441406 18.507812 C 128.957031 18.601562 138.46875 18.695312 147.984375 18.789062 C 152.816406 18.839844 158.738281 19.546875 160.558594 23.804688 C 161.304688 25.550781 161.128906 27.511719 160.9375 29.390625 C 160.492188 33.730469 160.050781 38.070312 159.609375 42.410156 C 166.101562 44.566406 172.589844 46.71875 179.078125 48.875 C 181.800781 49.777344 184.664062 50.773438 186.488281 52.890625 C 190.117188 57.097656 188.027344 63.339844 185.785156 68.339844 C 188.773438 68.386719 191.980469 68.699219 194.253906 70.542969 C 196.527344 72.386719 197.128906 76.265625 194.710938 77.929688 C 197.980469 77.5625 201.167969 80.609375 200.761719 83.714844 C 206.179688 84.15625 211.960938 84.734375 216.164062 88.011719 C 219.640625 90.722656 221.484375 94.878906 224.53125 98.019531 C 229.085938 102.71875 235.949219 104.773438 242.628906 105.503906 C 249.304688 106.234375 256.078125 105.839844 262.753906 106.59375 C 267.191406 107.097656 272.582031 109.21875 272.613281 113.46875 C 272.640625 117.652344 267.117188 120.933594 268.238281 124.980469 C 269.355469 129.019531 275.289062 128.929688 279.386719 130.445312 C 284.207031 132.226562 287.1875 137.632812 285.988281 142.410156 C 285.988281 142.410156 231.6875 150.691406 189.304688 113.597656 C 164.933594 92.273438 145.617188 73.847656 133.601562 62.039062 C 121.648438 50.289062 107.828125 40.597656 92.628906 33.53125 C 92.449219 33.449219 92.265625 33.367188 92.085938 33.28125 L 76.25 25.972656" fill="#ab451f"/></g><g id="change2_3"><path d="M 62.597656 31.164062 C 64.023438 23.664062 65.933594 15.386719 72.214844 11.050781 C 73.59375 10.097656 75.140625 9.378906 76.378906 8.25 C 78.839844 6.015625 79.882812 2.371094 82.71875 0.644531 C 84.054688 5.972656 84.886719 11.425781 85.195312 16.910156 C 85.414062 20.804688 85.363281 24.78125 84.214844 28.507812 C 83.242188 31.675781 81.515625 34.550781 79.808594 37.386719 C 78.78125 39.089844 77.738281 40.8125 76.324219 42.207031 C 74.335938 44.164062 71.636719 45.386719 68.855469 45.589844" fill="#fbcda3"/></g><path d="M 893.984375 3757.285937 C 931.875 3781.85625 969.765625 3806.426562 1007.65625 3830.996875 C 1068.90625 3870.684375 1133.242188 3913.926562 1163.164062 3980.489062 C 1215.15625 4096.192187 1146.523438 4245.332812 1214.648438 4352.364062" fill="none" stroke="#12100f" stroke-linecap="round" stroke-linejoin="round" stroke-miterlimit="10" stroke-width="12.804" transform="matrix(.1 0 0 -.1 0 513.92)"/><path d="M 893.984375 3512.832812 C 933.476562 3318.184375 972.96875 3123.535937 1012.460938 2928.8875 C 1031.289062 2835.91875 1050.234375 2742.598437 1081.367188 2652.989062 C 1167.65625 2404.434375 1342.03125 2197.989062 1512.734375 1997.79375" fill="none" stroke="#12100f" stroke-linecap="round" stroke-linejoin="round" stroke-miterlimit="10" stroke-width="12.804" transform="matrix(.1 0 0 -.1 0 513.92)"/><path d="M 1351.484375 3243.301562 C 1349.296875 3098.067187 1347.1875 2952.559375 1358.632812 2807.754687 C 1379.53125 2544.317187 1445.9375 2284.551562 1553.945312 2043.379687 C 1553.945312 2043.379687 1567.148438 1867.79375 1576.875 1794.278125" fill="none" stroke="#12100f" stroke-linecap="round" stroke-linejoin="round" stroke-miterlimit="10" stroke-width="12.804" transform="matrix(.1 0 0 -.1 0 513.92)"/><path d="M 2200.78125 2040.840625 C 2207.773438 2139.082812 2261.054688 2227.325 2314.414062 2310.1375 C 2365.117188 2388.848437 2419.648438 2476.895312 2403.75 2569.160937" fill="none" stroke="#12100f" stroke-linecap="round" stroke-linejoin="round" stroke-miterlimit="10" stroke-width="12.804" transform="matrix(.1 0 0 -.1 0 513.92)"/><path d="M 3267.460938 3338.10625 C 3158.476562 3235.645312 3050.078125 3120.840625 3013.515625 2975.7625 C 2998.125 2914.590625 2996.367188 2850.684375 3000.898438 2787.754687 C 3022.226562 2491.192187 3189.6875 2208.692187 3439.609375 2047.6375 C 3439.609375 2047.6375 3269.296875 1902.989062 3229.765625 1769.98125 C 3190.234375 1636.973437 3346.640625 1641.504687 3329.023438 1444.04375 L 3209.726562 996.192187" fill="none" stroke="#12100f" stroke-linecap="round" stroke-linejoin="round" stroke-miterlimit="10" stroke-width="12.804" transform="matrix(.1 0 0 -.1 0 513.92)"/><path d="M 276.5625 3237.403125 C 270.820312 3194.66875 289.921875 3149.5125 324.648438 3123.926562" fill="none" stroke="#12100f" stroke-linecap="round" stroke-linejoin="round" stroke-miterlimit="10" stroke-width="12.804" transform="matrix(.1 0 0 -.1 0 513.92)"/><path d="M 132.890625 3201.465625 C 135 3178.965625 131.132812 3155.91875 121.757812 3135.371875" fill="none" stroke="#12100f" stroke-linecap="round" stroke-linejoin="round" stroke-miterlimit="10" stroke-width="12.804" transform="matrix(.1 0 0 -.1 0 513.92)"/><path d="M 477.1875 3056.192187 C 547.851562 3180.645312 586.523438 3316.035937 603.75 3394.903125" fill="none" stroke="#12100f" stroke-linecap="round" stroke-linejoin="round" stroke-miterlimit="10" stroke-width="12.804" transform="matrix(.1 0 0 -.1 0 513.92)"/><path d="M 654.570312 4315.840625 C 506.132812 4291.426562 441.09375 4154.160937 441.09375 4154.160937 C 441.09375 4154.160937 464.570312 4222.442187 615.507812 4226.192187" fill="none" stroke="#12100f" stroke-linecap="round" stroke-linejoin="round" stroke-miterlimit="10" stroke-width="17.948" transform="matrix(.1 0 0 -.1 0 513.92)"/><path d="M 10.625 4198.809375 C 119.765625 4199.66875 183.242188 4109.5125 183.242188 4109.5125 C 183.242188 4109.5125 158.007812 4155.45 49.609375 4139.551562" fill="none" stroke="#12100f" stroke-linecap="round" stroke-linejoin="round" stroke-miterlimit="10" stroke-width="13.027" transform="matrix(.1 0 0 -.1 0 513.92)"/><path d="M 643.085938 4796.739062 C 634.335938 4828.41875 625.585938 4861.85625 633.632812 4893.692187 C 638.789062 4914.04375 650.429688 4932.051562 661.875 4949.629687 C 670.703125 4963.184375 679.492188 4976.739062 688.320312 4990.254687" fill="none" stroke="#12100f" stroke-linecap="round" stroke-linejoin="round" stroke-miterlimit="10" stroke-width="12.804" transform="matrix(.1 0 0 -.1 0 513.92)"/><path d="M 827.1875 5132.754687 C 827.1875 5132.754687 905.234375 4891.817187 798.085938 4765.332812" fill="none" stroke="#12100f" stroke-linecap="round" stroke-linejoin="round" stroke-miterlimit="10" stroke-width="12.804" transform="matrix(.1 0 0 -.1 0 513.92)"/><path d="M 177.617188 4780.29375 C 127.695312 4742.598437 83.710938 4696.973437 47.929688 4645.645312 C 47.929688 4645.645312 -28.554688 4612.090625 26.054688 3858.184375" fill="none" stroke="#12100f" stroke-linecap="round" stroke-linejoin="round" stroke-miterlimit="10" stroke-width="12.804" transform="matrix(.1 0 0 -.1 0 513.92)"/><path d="M 53.164062 3296.075 C 53.164062 3296.075 111.171875 2974.239062 300.078125 2967.442187" fill="none" stroke="#12100f" stroke-linecap="round" stroke-linejoin="round" stroke-miterlimit="10" stroke-width="12.804" transform="matrix(.1 0 0 -.1 0 513.92)"/><path d="M 1054.335938 4736.192187 C 1054.335938 4736.192187 1270.585938 4598.301562 1723.398438 4154.160937 C 2176.171875 3710.020312 2594.765625 3694.590625 2947.8125 3720.996875" fill="none" stroke="#12100f" stroke-linecap="round" stroke-linejoin="round" stroke-miterlimit="10" stroke-width="12.804" transform="matrix(.1 0 0 -.1 0 513.92)"/><path d="M 3962.03125 3707.207812 C 3962.03125 3707.207812 4217.304688 3617.442187 4293.828125 3300.254687 C 4370.351562 2983.10625 4371.132812 2627.79375 4213.515625 2338.848437 C 4055.898438 2049.903125 4009.0625 2050.098437 4086.484375 1881.660937 C 4163.945312 1713.2625 4132.109375 1658.457812 4044.804688 1425.332812" fill="none" stroke="#12100f" stroke-linecap="round" stroke-linejoin="round" stroke-miterlimit="10" stroke-width="12.804" transform="matrix(.1 0 0 -.1 0 513.92)"/><path d="M 3665.15625 409.473437 L 3876.679688 975.723437" fill="none" stroke="#12100f" stroke-linecap="round" stroke-linejoin="round" stroke-miterlimit="10" stroke-width="12.804" transform="matrix(.1 0 0 -.1 0 513.92)"/><path d="M 3424.257812 633.067187 C 3424.257812 633.067187 3573.90625 1123.41875 3586.015625 1259.35625" fill="none" stroke="#12100f" stroke-linecap="round" stroke-linejoin="round" stroke-miterlimit="10" stroke-width="12.804" transform="matrix(.1 0 0 -.1 0 513.92)"/><path d="M 2355.664062 2060.45 C 2379.921875 2087.79375 2512.617188 2108.575 2548.867188 2113.10625 C 2682.460938 2129.864062 2795.117188 2090.45 2916.640625 2032.598437 C 2946.523438 2018.379687 2976.5625 2004.004687 3008.398438 1994.942187 C 3127.03125 1961.270312 3252.304688 2041.426562 3367.65625 2085.098437" fill="none" stroke="#12100f" stroke-linecap="round" stroke-linejoin="round" stroke-miterlimit="10" stroke-width="12.804" transform="matrix(.1 0 0 -.1 0 513.92)"/><path d="M 2826.367188 633.067187 C 2826.367188 633.067187 2945 1055.801562 2951.992188 1232.051562 C 2958.984375 1408.301562 2942.773438 1641.3875 2942.773438 1641.3875" fill="none" stroke="#12100f" stroke-linecap="round" stroke-linejoin="round" stroke-miterlimit="10" stroke-width="12.804" transform="matrix(.1 0 0 -.1 0 513.92)"/><path d="M 2206.796875 2016.739062 C 2206.796875 2016.739062 2226.25 1805.528125 2099.882812 1459.590625 C 1973.515625 1113.653125 1887.382812 909.98125 1890.429688 804.590625" fill="none" stroke="#12100f" stroke-linecap="round" stroke-linejoin="round" stroke-miterlimit="10" stroke-width="12.804" transform="matrix(.1 0 0 -.1 0 513.92)"/><path d="M 1511.328125 494.239062 C 1511.328125 494.239062 1622.421875 978.379687 1623.203125 1192.989062 C 1623.984375 1407.598437 1610.390625 1551.114062 1610.390625 1551.114062" fill="none" stroke="#12100f" stroke-linecap="round" stroke-linejoin="round" stroke-miterlimit="10" stroke-width="12.804" transform="matrix(.1 0 0 -.1 0 513.92)"/><path d="M 893.984375 2422.246875 C 893.984375 2422.246875 961.757812 1741.54375 973.59375 1612.6375 C 985.46875 1483.770312 1020.898438 1253.145312 900.664062 890.567187 C 780.429688 528.028125 780.429688 528.028125 780.429688 528.028125" fill="none" stroke="#12100f" stroke-linecap="round" stroke-linejoin="round" stroke-miterlimit="10" stroke-width="12.804" transform="matrix(.1 0 0 -.1 0 513.92)"/><path d="M 1242.070312 1053.770312 C 1242.070312 1053.770312 1275.234375 1346.504687 1283.671875 1410.684375 C 1292.109375 1474.825 1311.367188 1714.239062 1463.320312 1855.098437" fill="none" stroke="#12100f" stroke-linecap="round" stroke-linejoin="round" stroke-miterlimit="10" stroke-width="12.804" transform="matrix(.1 0 0 -.1 0 513.92)"/><path d="M 4344.0625 3016.035937 C 4344.0625 3016.035937 4445.664062 2686.075 4447.539062 2422.246875 C 4449.375 2158.379687 4468.046875 1942.754687 4376.5625 1656.778125 L 4461.71875 1768.184375" fill="none" stroke="#12100f" stroke-linecap="round" stroke-linejoin="round" stroke-miterlimit="10" stroke-width="12.804" transform="matrix(.1 0 0 -.1 0 513.92)"/><path d="M 4528.007812 1342.48125 L 4526.484375 1631.660937 C 4526.484375 1631.660937 4851.914062 1122.989062 5023.203125 1037.48125 C 5023.203125 1037.48125 4890.664062 1337.051562 4901.992188 1479.551562" fill="none" stroke="#12100f" stroke-linecap="round" stroke-linejoin="round" stroke-miterlimit="10" stroke-width="12.804" transform="matrix(.1 0 0 -.1 0 513.92)"/><path d="M 4071.640625 3639.551562 C 4071.640625 3639.551562 4324.414062 3672.325 4526.484375 3338.10625 C 4728.59375 3003.848437 4849.375 2933.2625 4824.492188 2528.926562 C 4799.609375 2124.590625 4885.742188 1957.16875 4885.742188 1957.16875" fill="none" stroke="#12100f" stroke-linecap="round" stroke-linejoin="round" stroke-miterlimit="10" stroke-width="12.804" transform="matrix(.1 0 0 -.1 0 513.92)"/><path d="M 559.765625 4865.1375 C 370.273438 4841.23125 278.828125 4616.426562 278.828125 4616.426562 C 278.828125 4616.426562 153.632812 4635.528125 194.179688 4851.817187 C 194.179688 4851.817187 214.296875 5080.098437 359.140625 5020.254687" fill="none" stroke="#12100f" stroke-linecap="round" stroke-linejoin="round" stroke-miterlimit="10" stroke-width="12.804" transform="matrix(.1 0 0 -.1 0 513.92)"/><path d="M 452.109375 5039.707812 C 452.109375 5039.707812 531.601562 5107.715625 576.484375 5071.85625 C 621.367188 5035.957812 600.039062 5002.325 600.039062 5002.325 C 600.039062 5002.325 680.9375 5046.348437 722.382812 5051.504687" fill="none" stroke="#12100f" stroke-linecap="round" stroke-linejoin="round" stroke-miterlimit="10" stroke-width="12.804" transform="matrix(.1 0 0 -.1 0 513.92)"/><path d="M 933.046875 5076.739062 C 933.046875 5076.739062 1038.203125 5103.496875 1072.109375 5003.535937 C 1072.109375 5003.535937 1063.320312 4946.54375 1258.554688 4949.04375 C 1453.789062 4951.54375 1523.632812 4948.457812 1523.632812 4948.457812 C 1523.632812 4948.457812 1630.351562 4950.801562 1609.375 4845.29375" fill="none" stroke="#12100f" stroke-linecap="round" stroke-linejoin="round" stroke-miterlimit="10" stroke-width="12.804" transform="matrix(.1 0 0 -.1 0 513.92)"/><path d="M 1713.007812 4676.309375 L 1812.109375 4643.028125 C 1812.109375 4643.028125 1910.859375 4637.95 1884.335938 4546.85625 L 1857.851562 4455.801562 C 1857.851562 4455.801562 1943.945312 4469.98125 1962.460938 4395.1375" fill="none" stroke="#12100f" stroke-linecap="round" stroke-linejoin="round" stroke-miterlimit="10" stroke-width="12.804" transform="matrix(.1 0 0 -.1 0 513.92)"/><path d="M 2007.617188 4302.051562 C 2007.617188 4302.051562 2162.304688 4324.317187 2220.820312 4188.809375 C 2279.375 4053.301562 2595.273438 4079.629687 2627.539062 4073.2625" fill="none" stroke="#12100f" stroke-linecap="round" stroke-linejoin="round" stroke-miterlimit="10" stroke-width="12.804" transform="matrix(.1 0 0 -.1 0 513.92)"/><path d="M 2708.398438 3958.809375 C 2708.398438 3958.809375 2621.289062 3873.028125 2740.859375 3848.73125 C 2860.46875 3824.434375 2870.507812 3760.528125 2859.882812 3715.098437" fill="none" stroke="#12100f" stroke-linecap="round" stroke-linejoin="round" stroke-miterlimit="10" stroke-width="12.804" transform="matrix(.1 0 0 -.1 0 513.92)"/><path d="M 739.492188 4796.739062 C 739.492188 4796.739062 707.773438 4886.817187 798.085938 4949.04375" fill="none" stroke="#12100f" stroke-linecap="round" stroke-linejoin="round" stroke-miterlimit="10" stroke-width="12.804" transform="matrix(.1 0 0 -.1 0 513.92)"/><path d="M 65.390625 5098.692187 C 65.390625 5098.692187 155.195312 5015.723437 168.046875 4970.1375" fill="none" stroke="#12100f" stroke-linecap="round" stroke-linejoin="round" stroke-miterlimit="10" stroke-width="12.804" transform="matrix(.1 0 0 -.1 0 513.92)"/><g id="change5_1"><path d="M 248.730469 113.996094 L 242.242188 114.261719 C 242.242188 114.261719 240.601562 125.800781 246.199219 131.867188 C 251.796875 137.9375 256.304688 142.042969 256.304688 142.042969 L 260.839844 126.847656 L 248.730469 113.996094" fill="#f2b1dc"/></g><g id="change5_2"><path d="M 284.039062 109.996094 C 284.039062 109.996094 289.160156 104.589844 293.832031 104.402344 C 293.832031 104.402344 300.734375 106.605469 296.695312 122.742188 L 291.707031 129.148438 L 282.617188 120.476562 L 284.039062 109.996094" fill="#f2b1dc"/></g><g id="change6_1"><path d="M 260.535156 116.515625 C 260.535156 116.515625 264.589844 107.65625 269.4375 105.382812 C 274.285156 103.109375 274.285156 103.109375 274.285156 103.109375 C 274.285156 103.109375 285.757812 107.597656 288.863281 118.386719 C 291.96875 129.171875 285.808594 134.839844 285.808594 134.839844 L 268.128906 130.984375 L 260.839844 126.847656 L 260.535156 116.515625" fill="#e46abc"/></g><g id="change5_3"><path d="M 284.90625 148.746094 C 284.90625 148.746094 293.738281 153.761719 305.277344 149.816406 C 316.8125 145.867188 314.140625 137.519531 314.140625 137.519531 C 314.140625 137.519531 304.128906 134.191406 301.582031 135.535156 C 299.035156 136.882812 292.65625 138.878906 292.65625 138.878906 L 284.90625 148.746094" fill="#f2b1dc"/></g><g id="change6_2"><path d="M 292.191406 144.023438 C 292.191406 144.023438 303.339844 140.410156 307.113281 130.898438 C 310.890625 121.390625 312.15625 114.0625 306.496094 115.589844 C 300.839844 117.117188 298.648438 119.023438 298.648438 119.023438 L 289.167969 137.082031 L 292.191406 144.023438" fill="#e46abc"/></g><g id="change5_4"><path d="M 267.8125 146.878906 C 267.8125 146.878906 259.089844 152.253906 255.96875 151.589844 C 252.847656 150.925781 246.429688 150.351562 243.933594 144.71875 C 241.4375 139.089844 237.46875 137.882812 243.59375 136.269531 C 249.71875 134.65625 259.527344 137.449219 261.246094 139.203125 C 262.96875 140.953125 267.8125 146.878906 267.8125 146.878906" fill="#f2b1dc"/></g><g id="change7_1"><path d="M 255.316406 133.722656 C 255.316406 133.722656 244.796875 124.117188 249.5 111.386719 C 249.5 111.386719 257.28125 112.1875 260.535156 116.515625 C 263.789062 120.84375 262.582031 135.550781 262.582031 135.550781 L 255.316406 133.722656" fill="#ee93cf"/></g><g id="change6_3"><path d="M 274.089844 143.480469 C 274.089844 143.480469 273.296875 136.730469 260.710938 133.964844 C 248.121094 131.195312 250 128.78125 250 128.78125 C 250 128.78125 247.210938 132.296875 250.164062 135.675781 C 253.117188 139.050781 254.367188 144.289062 258.050781 145.394531 C 261.734375 146.503906 267.882812 148.558594 267.882812 148.558594 L 274.089844 143.480469" fill="#e46abc"/></g><g id="change7_2"><path d="M 276.585938 135.210938 C 276.585938 135.210938 288.714844 124.390625 288.863281 118.386719 C 289.011719 112.378906 289.011719 112.378906 289.011719 112.378906 C 289.011719 112.378906 300.339844 117.839844 295.761719 130.664062 C 295.761719 130.664062 283.257812 138.460938 281.921875 137.53125 C 280.582031 136.601562 276.585938 135.210938 276.585938 135.210938" fill="#ee93cf"/></g><g id="change5_5"><path d="M 275.554688 142.648438 C 275.554688 142.648438 280.972656 135.730469 285.808594 134.839844 C 290.644531 133.949219 298.09375 127.355469 302.679688 129.054688 C 302.679688 129.054688 302.46875 136.984375 298.59375 139.566406 C 294.71875 142.148438 291.476562 145.566406 291.476562 145.566406 L 275.554688 142.648438" fill="#f2b1dc"/></g><g id="change5_6"><path d="M 285.6875 132.351562 C 285.6875 132.351562 287.257812 119.949219 273.777344 112.199219 C 273.777344 112.199219 259.546875 115.023438 260.839844 126.847656 C 262.132812 138.667969 266.75 138.90625 266.75 138.90625 L 273.589844 141.914062 L 276.410156 142.066406 L 285.6875 132.351562" fill="#f2b1dc"/></g><g id="change7_3"><path d="M 259.902344 141.503906 C 259.902344 141.503906 262.753906 153.4375 278.285156 153.085938 C 293.820312 152.738281 293.441406 137.519531 293.441406 137.519531 C 293.441406 137.519531 281.769531 141.65625 276.871094 141.265625 C 271.976562 140.878906 266.265625 141.058594 259.902344 141.503906" fill="#ee93cf"/></g></g></svg>